<?xml version="1.0" standalone="no"?><!DOCTYPE svg PUBLIC "-//W3C//DTD SVG 1.1//EN" "http://www.w3.org/Graphics/SVG/1.1/DTD/svg11.dtd"><svg class="icon" width="200px" height="200.00px" viewBox="0 0 1024 1024" version="1.1" xmlns="http://www.w3.org/2000/svg"><path d="M307.95 175.71m-88.23 0a88.23 88.23 0 1 0 176.46 0 88.23 88.23 0 1 0-176.46 0ZM291.56 920.93c-7.06 0-14.23-1.28-21.21-3.98-30.3-11.72-45.36-45.78-33.64-76.07l58.41-150.99-155.31-2.99a58.815 58.815 0 0 1-47.51-25.74 58.844 58.844 0 0 1-6.45-53.66l113.8-304.58a58.814 58.814 0 0 1 44.94-37.35 58.752 58.752 0 0 1 54.97 19.84L391.01 393l101.26 7.41c32.4 2.37 56.74 30.56 54.37 62.95-2.37 32.4-30.57 56.67-62.95 54.37l-125.82-9.21a58.787 58.787 0 0 1-40.52-20.57L274.8 437.9l-49.68 132.97 156.33 3c19.2 0.37 37 10.08 47.7 26.02a58.82 58.82 0 0 1 6.02 54.01l-88.74 229.4c-9.02 23.33-31.29 37.63-54.87 37.63zM497.22 498.72c-11.49 0-22.75-5.59-29.52-15.91-10.71-16.28-6.18-38.16 10.1-48.87 8.74-5.74 215.81-141.22 372.39-188.19 18.67-5.59 38.34 5 43.94 23.67 5.6 18.67-4.99 38.34-23.67 43.94-146.65 43.99-351.85 178.21-353.9 179.56a35.108 35.108 0 0 1-19.34 5.8zM203.66 728.27l-113.48-2.04c-13.16-0.23-23.95 10.37-23.95 23.53v126.03c0 12.99 10.53 23.53 23.53 23.53h65.4c9.71 0 18.42-5.97 21.94-15.02l48.09-124c5.9-15.25-5.17-31.74-21.53-32.03zM845.51 860.58c-12.99 0-23.53-10.53-23.53-23.53V291.57c0-12.99 10.53-23.53 23.53-23.53s23.53 10.53 23.53 23.53v545.48c-0.01 13-10.54 23.53-23.53 23.53zM857.14 862.61c-22.55 0-40.19-13.53-54.37-24.41-7.9-6.06-17.73-13.6-22.73-13.6-5.18 0-15.33 7.71-23.49 13.91-14.88 11.29-31.74 24.1-53.61 24.1-22.15 0-40.13-13.22-55.98-24.88-6.46-4.75-17.28-12.71-21.28-13.14-4.47 0.4-17.24 9.37-24.87 14.73-16.29 11.44-33.13 23.28-52.08 23.28-18.6 0-33.64-11.52-46.92-21.68-10.49-8.03-21.33-16.33-30.18-16.33-12.99 0-23.53-10.53-23.53-23.53 0-12.99 10.53-23.53 23.53-23.53 24.8 0 43.64 14.43 58.79 26.02 5.99 4.59 15.06 11.53 18.51 12 4.42-0.4 17.19-9.37 24.82-14.74 16.29-11.44 33.13-23.28 52.08-23.28 18.7 0 34.11 11.33 49 22.28 9.52 7.01 21.39 15.73 28.1 15.73 6.04 0 16.2-7.71 25.16-14.52 14.5-11.01 30.94-23.49 51.95-23.49 20.97 0 37.12 12.39 51.37 23.32 8.98 6.89 19.16 14.69 25.73 14.69 6.39 0 14.91-6.76 23.94-13.92 13.54-10.73 30.39-24.09 53.16-24.09 12.99 0 23.53 10.53 23.53 23.53 0 12.99-10.53 23.53-23.53 23.53-6.38 0-14.91 6.76-23.93 13.91-13.54 10.75-30.39 24.11-53.17 24.11zM857.14 936.52c-22.55 0-40.19-13.53-54.37-24.41-7.9-6.06-17.73-13.6-22.73-13.6-5.18 0-15.33 7.71-23.49 13.91-14.88 11.29-31.74 24.1-53.61 24.1-22.15 0-40.13-13.22-55.98-24.88-6.46-4.75-17.28-12.71-21.28-13.14-4.47 0.4-17.24 9.37-24.87 14.73-16.29 11.44-33.13 23.28-52.08 23.28-18.6 0-33.64-11.52-46.92-21.68-10.49-8.03-21.33-16.33-30.18-16.33-12.99 0-23.53-10.53-23.53-23.53s10.53-23.53 23.53-23.53c24.8 0 43.64 14.43 58.79 26.02 5.99 4.59 15.06 11.53 18.51 12 4.42-0.4 17.19-9.37 24.82-14.74 16.29-11.44 33.13-23.28 52.08-23.28 18.7 0 34.11 11.33 49 22.28 9.52 7.01 21.39 15.73 28.1 15.73 6.04 0 16.2-7.71 25.16-14.52 14.5-11.01 30.94-23.49 51.95-23.49 20.97 0 37.12 12.39 51.37 23.32 8.98 6.89 19.16 14.69 25.73 14.69 6.39 0 14.91-6.76 23.94-13.92 13.54-10.73 30.39-24.09 53.16-24.09 12.99 0 23.53 10.53 23.53 23.53s-10.53 23.53-23.53 23.53c-6.38 0-14.91 6.76-23.93 13.91-13.54 10.75-30.39 24.11-53.17 24.11z" /></svg>