<?xml version="1.0" standalone="no"?><!DOCTYPE svg PUBLIC "-//W3C//DTD SVG 1.1//EN" "http://www.w3.org/Graphics/SVG/1.1/DTD/svg11.dtd"><svg class="icon" width="200px" height="200.00px" viewBox="0 0 1024 1024" version="1.1" xmlns="http://www.w3.org/2000/svg"><path d="M643.832335 896.255489q2.043912 16.351297 2.043912 32.702595 0 14.307385-2.55489 28.61477t-8.686627 22.483034q-7.153693 9.197605-15.329341 17.373253t-21.461078 13.796407-34.235529 9.197605-52.630739 3.576846q-32.702595 0-51.097804-4.087824t-29.636727-10.219561-17.373253-13.796407-12.263473-14.818363q-7.153693-7.153693-9.197605-21.461078t-2.043912-28.61477q0-16.351297 1.021956-34.746507l253.44511 0zM670.403194 136.942116q4.087824 14.307385 13.285429 49.56487t20.9501 83.289421 23.50499 105.261477 21.972056 113.948104 16.351297 109.860279 6.131737 94.01996q0 32.702595-14.307385 58.251497t-35.257485 43.433134-44.45509 27.592814-41.9002 9.708583l-51.097804 0-64.383234 0q-33.724551 0-67.449102-0.510978t-61.317365-0.510978q-18.39521 0-41.389222-8.686627t-42.922156-25.548902-33.213573-42.922156-13.285429-61.828343q0-43.944112 5.620758-98.618762t14.307385-112.41517 18.906188-113.948104 19.417166-102.195609 16.351297-78.179641 10.219561-41.389222q11.241517-41.9002 27.081836-61.828343t53.652695-19.928144l51.097804 0q22.483034 0 41.389222 0.510978t37.301397 0.510978l35.768463 0q22.483034 0 35.257485 5.10978t20.439122 14.818363 12.263473 22.994012 9.708583 29.636727zM421.045908 289.213573q14.307385 0 28.61477-18.39521t14.307385-44.966068q1.021956-28.61477-13.285429-47.00998t-28.61477-18.39521q-15.329341 0-30.147705 18.906188t-15.840319 46.499002q0 26.570858 14.818363 45.477046t30.147705 17.884232z" /></svg>