<?xml version="1.0" standalone="no"?><!DOCTYPE svg PUBLIC "-//W3C//DTD SVG 1.1//EN" "http://www.w3.org/Graphics/SVG/1.1/DTD/svg11.dtd"><svg t="1781496558864" class="icon" viewBox="0 0 1024 1024" version="1.1" xmlns="http://www.w3.org/2000/svg" p-id="2308" xmlns:xlink="http://www.w3.org/1999/xlink" width="200" height="200"><path d="M772.992 154.496h46.72v752.576h-46.72V154.496z m129.216 779.072a26.432 26.432 0 0 1-26.432 26.432h-158.784a26.432 26.432 0 0 1 0-52.864h158.784a26.368 26.368 0 0 1 26.432 26.432z" p-id="2309"></path><path d="M749.312 154.496a47.04 47.04 0 1 0 94.08 0 47.04 47.04 0 0 0-94.08 0z m-465.024 510.528a79.296 79.296 0 0 1-67.136-36.928L134.208 497.6a78.976 78.976 0 0 1-10.496-59.968c4.608-20.736 17.024-38.4 34.944-49.792l396.928-318.464 16.832 26.752-1.92 12.608c-10.24 23.488 7.744 92.8 55.552 168.064 47.808 75.2 102.912 120.896 128.512 121.664l10.176 0.256 17.024 26.624-17.152 12.736-439.424 215.552a77.184 77.184 0 0 1-40.896 11.392z m245.888-526.08L180.992 419.008a42.944 42.944 0 0 0-19.84 27.008 41.024 41.024 0 0 0 5.44 31.04l82.944 130.496a40.96 40.96 0 0 0 56.768 12.736l403.712-198.208c-40.832-24.192-84.736-74.752-116.416-124.672-31.68-49.92-58.816-111.168-63.424-158.464z" p-id="2310"></path><path d="M755.072 436.8l-1.6-0.064 1.024-38.336c2.496-0.128 4.16-0.256 5.056-0.832 12.096-7.68 8.704-75.456-52.672-172.16-60.736-95.488-117.504-131.776-135.168-121.344 1.664-0.64 0 1.856-0.768 3.648l-35.648-14.208c3.264-7.616 7.168-16.64 16.832-22.4 54.656-32.32 135.04 51.776 187.136 133.76 56.448 88.896 88.64 194.752 40.832 225.152a46.208 46.208 0 0 1-25.024 6.784zM552.384 532.736C355.2 420.288 362.56 239.68 362.944 232.128l38.336 1.984c-0.32 6.656-5.824 164.992 170.112 265.344l-19.008 33.28zM407.04 601.728C231.872 501.76 238.4 341.248 238.784 334.4l38.336 1.984c-0.32 5.888-4.992 144.192 148.928 232.064l-19.008 33.28z" p-id="2311"></path><path d="M669.888 138.048h114.432v32.896h-114.432z" p-id="2312"></path></svg>