<?xml version="1.0" standalone="no"?><!DOCTYPE svg PUBLIC "-//W3C//DTD SVG 1.1//EN" "http://www.w3.org/Graphics/SVG/1.1/DTD/svg11.dtd"><svg t="1658202728688" class="icon" viewBox="0 0 1024 1024" version="1.1" xmlns="http://www.w3.org/2000/svg" p-id="9263" xmlns:xlink="http://www.w3.org/1999/xlink" width="200" height="200"><defs><style type="text/css">@font-face { font-family: feedback-iconfont; src: url("//at.alicdn.com/t/font_1031158_u69w8yhxdu.woff2?t=1630033759944") format("woff2"), url("//at.alicdn.com/t/font_1031158_u69w8yhxdu.woff?t=1630033759944") format("woff"), url("//at.alicdn.com/t/font_1031158_u69w8yhxdu.ttf?t=1630033759944") format("truetype"); }
</style></defs><path d="M530.2227 399.186854V104.135524L669.070743 130.169405v242.983568l-138.848043 26.033881zM391.37669 78.101643v347.119092l-173.558529-173.558529L391.37669 78.101643z m555.388107 242.983568l-138.848044 26.033881V156.203286l138.848044 26.033881v138.848044z" fill="#FF7474" p-id="9264"></path><path d="M391.37669 425.220735l138.848044-26.033881V104.135524l-138.848044-26.033881v347.119092z m277.694053-52.067762V130.169405l138.848044 26.033881v190.915806l-138.848044 26.033881z" fill="#ECF4F7" p-id="9265"></path><path d="M217.816127 78.101643c-19.092191 0-34.712519-15.620329-34.712519-34.712519s15.620329-34.712519 34.712519-34.71252 34.712519 15.620329 34.712519 34.71252S236.908318 78.101643 217.816127 78.101643" fill="#AAB1BA" p-id="9266"></path><path d="M356.664171 1024H78.970117c-5.206776 0-8.678638-3.471862-8.678638-8.678638 0-5.206776 3.471862-8.678638 8.678638-8.678639h130.169406V85.043334c-19.092191-3.471862-34.712519-20.827105-34.71252-41.65421C174.427003 19.092191 193.519194 0 217.816127 0s43.389124 19.092191 43.389124 43.389124c0 20.827105-15.620329 38.182348-34.71252 41.65421v921.599389h130.169406c5.206776 0 8.678638 3.471862 8.678638 8.678639 0.002034 5.206776-3.469828 8.678638-8.676604 8.678638zM217.816127 17.355243c-13.885415 0-26.033881 12.148467-26.033881 26.033881s12.148467 26.033881 26.033881 26.033881 26.033881-12.148467 26.033881-26.033881-12.148467-26.033881-26.033881-26.033881z m173.560563 416.542097c-3.471862 0-5.206776-1.734914-6.94169-1.734914l-104.135525-104.135525c-3.471862-3.471862-3.471862-8.678638 0-12.148466s8.678638-3.471862 12.148467 0l88.515196 88.515196V98.928748l-88.515196 88.515196c-3.471862 3.471862-8.678638 3.471862-12.148467 0-3.471862-3.471862-3.471862-8.678638 0-12.148467l104.135525-104.135524c1.734914-1.734914 3.471862-1.734914 5.206776-1.734914h1.734914l555.390141 104.135524c3.471862 0 6.94169 5.206776 6.94169 8.678638v138.848044c0 3.471862-3.471862 6.94169-6.94169 8.678638l-555.390141 104.131457c1.734914 0 0 0 0 0z m8.676604-345.382144v326.291987l538.032865-100.663662v-124.962629L400.053294 88.515196z m130.169406 258.603896c-5.206776 0-8.678638-3.471862-8.678639-8.678638V164.881925c0-5.206776 3.471862-8.678638 8.678639-8.678639s8.678638 3.471862 8.678638 8.678639V338.440454c0 5.206776-3.471862 8.678638-8.678638 8.678638z m138.848043-26.033881c-5.206776 0-8.678638-3.471862-8.678638-8.678638V190.915806c0-5.206776 3.471862-8.678638 8.678638-8.678639 5.206776 0 8.678638 3.471862 8.678639 8.678639V312.406573c0 5.206776-3.471862 8.678638-8.678639 8.678638z m138.848044-26.033881c-5.206776 0-8.678638-3.471862-8.678638-8.678638v-69.423005c0-5.206776 3.471862-8.678638 8.678638-8.678638s8.678638 3.471862 8.678638 8.678638V286.372692c-0.002034 5.206776-3.471862 8.678638-8.678638 8.678638z" fill="#51565F" p-id="9267"></path></svg>