<?xml version="1.0" standalone="no"?><!DOCTYPE svg PUBLIC "-//W3C//DTD SVG 1.1//EN" "http://www.w3.org/Graphics/SVG/1.1/DTD/svg11.dtd"><svg class="icon" width="200px" height="200.00px" viewBox="0 0 1024 1024" version="1.1" xmlns="http://www.w3.org/2000/svg"><path d="M908.784 114.736a285.504 285.504 0 0 0-403.312 0L114.768 505.456A285.184 285.184 0 0 0 518.08 908.768l390.704-390.704a285.52 285.52 0 0 0 0-403.328zM236.224 809.552a35.648 35.648 0 1 1-62.016 35.2 280 280 0 0 1 1.344-277.552 35.648 35.648 0 0 1 61.68 35.744 208.512 208.512 0 0 0-1.008 206.608z m613.744-350.4L665.12 644.08 379.456 358.416l184.832-184.864a202 202 0 0 1 285.68 285.68z" /></svg>