<?xml version="1.0" standalone="no"?><!DOCTYPE svg PUBLIC "-//W3C//DTD SVG 1.1//EN" "http://www.w3.org/Graphics/SVG/1.1/DTD/svg11.dtd"><svg class="icon" width="200px" height="200.00px" viewBox="0 0 1024 1024" version="1.1" xmlns="http://www.w3.org/2000/svg"><path d="M280.486957 672.278261c44.521739 13.356522 80.13913 35.617391 115.756521 66.782609 13.356522 17.808696 26.713043 35.617391 40.069565 57.87826 13.356522 22.26087 17.808696 40.069565 26.713044 62.330435 4.452174 22.26087 8.904348 44.521739 8.904348 66.782609s0 44.521739-4.452174 66.782609c-44.521739 8.904348-89.043478 4.452174-129.113044-8.904348-44.521739-13.356522-80.13913-40.069565-115.756521-71.234783-35.617391-31.165217-57.878261-71.234783-66.782609-115.756522-13.356522-40.069565-13.356522-84.591304-4.452174-129.113043 44.521739-8.904348 84.591304-4.452174 129.113044 4.452174z m249.321739-565.426087c35.617391 22.26087 62.330435 53.426087 84.591304 89.043478s35.617391 75.686957 40.069565 120.208696c17.808696-22.26087 44.521739-40.069565 66.782609-57.878261 26.713043-17.808696 53.426087-26.713043 84.591304-35.617391 13.356522 35.617391 22.26087 75.686957 22.26087 111.304347 0 31.165217-4.452174 57.878261-13.356522 84.591305-8.904348 26.713043-17.808696 53.426087-35.617391 75.686956-13.356522 22.26087-31.165217 44.521739-53.426087 62.330435-17.808696 17.808696-40.069565 35.617391-66.782609 48.973913-17.808696 8.904348-35.617391 17.808696-53.426087 22.26087-17.808696 4.452174-35.617391 8.904348-57.878261 8.904348V890.434783c8.904348-26.713043 17.808696-48.973913 35.617392-75.686957 13.356522-22.26087 35.617391-44.521739 53.426087-66.782609 17.808696-17.808696 35.617391-31.165217 53.426087-44.521739 22.26087-13.356522 44.521739-22.26087 66.782608-31.165217 22.26087-8.904348 44.521739-13.356522 66.782609-13.356522s44.521739 0 66.782609 4.452174c8.904348 40.069565 8.904348 84.591304-4.452174 129.113044-13.356522 44.521739-35.617391 80.13913-66.782609 115.756521-17.808696 17.808696-35.617391 31.165217-57.878261 40.069565l-66.782609 26.713044c-22.26087 4.452174-48.973913 8.904348-75.686956 13.356522s-48.973913 4.452174-75.686957 0h-53.426087v-356.173913c-35.617391-4.452174-71.234783-13.356522-102.4-31.165218-22.26087-13.356522-44.521739-26.713043-66.782608-48.973913-22.26087-17.808696-35.617391-40.069565-53.426087-62.330435L244.869565 422.956522c-8.904348-26.713043-13.356522-57.878261-13.356522-84.591305 0-40.069565 8.904348-80.13913 22.26087-115.756521 31.165217 8.904348 57.878261 17.808696 84.591304 35.617391 22.26087 13.356522 44.521739 31.165217 66.782609 53.426087 4.452174-44.521739 17.808696-80.13913 40.069565-115.756522s48.973913-66.782609 84.591305-89.043478zM48.973913 195.895652c17.808696-8.904348 35.617391-8.904348 53.426087 0 17.808696 8.904348 26.713043 26.713043 26.713043 44.521739s-8.904348 35.617391-26.713043 44.521739-35.617391 8.904348-53.426087 0-26.713043-26.713043-26.713043-44.521739 8.904348-35.617391 26.713043-44.521739z m890.434783-13.356522c26.713043 0 53.426087 22.26087 53.426087 53.426087s-22.26087 53.426087-53.426087 53.426087c-26.713043 0-53.426087-22.26087-53.426087-53.426087s22.26087-53.426087 53.426087-53.426087z m-578.782609-89.043478c26.713043 0 53.426087 22.26087 53.426087 53.426087s-26.713043 48.973913-53.426087 48.973913-53.426087-22.26087-53.426087-53.426087 22.26087-48.973913 53.426087-48.973913z m320.556522-31.165217c26.713043 0 53.426087 22.26087 53.426087 53.426087s-22.26087 53.426087-53.426087 53.426087-53.426087-22.26087-53.426087-53.426087 26.713043-53.426087 53.426087-53.426087zM186.991304 57.878261c17.808696 8.904348 26.713043 26.713043 26.713044 44.521739s-8.904348 35.617391-26.713044 44.521739c-17.808696 8.904348-35.617391 8.904348-53.426087 0-13.356522-8.904348-22.26087-26.713043-22.260869-44.521739s8.904348-35.617391 26.713043-44.521739 35.617391-8.904348 48.973913 0z m712.347826 0c17.808696 8.904348 26.713043 26.713043 26.713044 44.521739s-8.904348 35.617391-26.713044 44.521739c-17.808696 8.904348-35.617391 8.904348-53.426087 0-17.808696-8.904348-26.713043-26.713043-26.713043-44.521739s8.904348-35.617391 26.713043-44.521739c17.808696-8.904348 40.069565-8.904348 53.426087 0zM503.095652 0c26.713043 0 53.426087 22.26087 53.426087 53.426087s-22.26087 53.426087-53.426087 53.426087-53.426087-26.713043-53.426087-53.426087 22.26087-53.426087 53.426087-53.426087z" /></svg>