<?xml version="1.0" standalone="no"?><!DOCTYPE svg PUBLIC "-//W3C//DTD SVG 1.1//EN" "http://www.w3.org/Graphics/SVG/1.1/DTD/svg11.dtd"><svg class="icon" width="200px" height="200.00px" viewBox="0 0 1024 1024" version="1.1" xmlns="http://www.w3.org/2000/svg"><path d="M685.396049 0q20.229539 0 33.234243 9.633114t13.004704 27.93603l0 31.789276q0 19.266228-13.486359 27.93603t-32.752587 8.669802l-350.645343 0q-19.266228 0-29.862653-9.633114t-10.596425-26.009407l0-34.67921q0-17.339605 11.559737-26.491063t30.825964-9.151458l348.718721 0zM726.818438 151.239887q-9.633114 58.761994-19.266228 111.74412-7.706491 46.238946-15.894638 93.441204t-13.968015 78.028222-10.596425 65.023518-9.151458 66.468485-7.706491 59.24365-6.261524 41.422389q-3.853246 25.046096-21.19285 34.67921t-40.459078 15.412982q-41.422389 10.596425-77.064911 10.11477t-70.321731-9.151458q-11.559737-2.889934-23.601129-6.74318t-21.674506-9.633114-16.376294-13.968015-7.706491-20.711195q-1.926623-13.486359-3.37159-30.825964t-3.37159-43.830668-5.298213-63.578551-8.188147-89.106303q-4.816557-52.982126-12.523048-104.037629t-15.412982-92.477893q-8.669802-47.202258-18.302916-91.514581l427.710254 0zM501.403575 772.575729q23.119473 0 45.757291-3.853246t40.940734-8.669802q21.19285-5.779868 41.422389-13.486359l0 55.87206q0 12.523048-0.963311 21.674506t-5.779868 15.894638-14.449671 12.523048-27.93603 12.523048q-17.339605 6.74318-38.532455 9.633114t-42.385701 2.889934-41.904045-3.37159-38.0508-9.151458q-30.825964-10.596425-38.532455-24.56444t-7.706491-27.454374l0-66.468485q19.266228 7.706491 40.459078 13.486359 18.302916 4.816557 41.422389 8.669802t46.238946 3.853246z" /></svg>