<?xml version="1.0" standalone="no"?><!DOCTYPE svg PUBLIC "-//W3C//DTD SVG 1.1//EN" "http://www.w3.org/Graphics/SVG/1.1/DTD/svg11.dtd"><svg class="icon" width="200px" height="180.12px" viewBox="0 0 1137 1024" version="1.1" xmlns="http://www.w3.org/2000/svg"><path d="M1061.034667 369.777778h-58.368C968.590222 168.277333 794.908444 14.222222 583.68 14.222222 372.508444 14.222222 198.769778 168.277333 164.693333 369.777778H76.743111A565.703111 565.703111 0 0 0 0 654.222222V796.444444h84.195556A212.650667 212.650667 0 0 1 284.444444 654.222222 212.650667 212.650667 0 0 1 484.693333 796.444444h168.334223a212.650667 212.650667 0 0 1 200.248888-142.222222 212.650667 212.650667 0 0 1 200.248889 142.222222H1137.777778v-142.222222a565.703111 565.703111 0 0 0-76.743111-284.444444z m-831.886223 0c29.411556-149.902222 149.048889-266.467556 301.226667-288.483556V369.777778H229.034667z m381.155556 0V79.416889h-59.733333c10.581333-0.910222 20.821333-2.958222 31.687111-2.958222 176.298667 0 320.341333 126.634667 353.052444 293.319111H610.417778zM142.222222 867.555556a142.222222 142.222222 0 1 0 284.444445 0 142.222222 142.222222 0 0 0-284.444445 0zM711.111111 867.555556a142.222222 142.222222 0 1 0 284.444445 0 142.222222 142.222222 0 0 0-284.444445 0z" /></svg>