<?xml version="1.0" standalone="no"?><!DOCTYPE svg PUBLIC "-//W3C//DTD SVG 1.1//EN" "http://www.w3.org/Graphics/SVG/1.1/DTD/svg11.dtd"><svg class="icon" width="200px" height="191.76px" viewBox="0 0 1068 1024" version="1.1" xmlns="http://www.w3.org/2000/svg"><path d="M865.203291 795.628589l94.046597-54.292767a25.443891 25.443891 0 1 1 25.443891 44.079811l-94.046597 54.292767 94.046597 54.292767a25.443891 25.443891 0 1 1-25.443891 44.079811l-94.046597-54.293767v108.559535a25.443891 25.443891 0 0 1-50.887782 0V883.736211l-94.046597 54.292768a25.443891 25.443891 0 1 1-25.443891-44.079811l94.045597-54.292768-94.045597-54.292767a25.443891 25.443891 0 1 1 25.443891-44.079811l94.046597 54.293767V686.966055a25.443891 25.443891 0 0 1 50.887782 0v108.611534zM101.776564 0h865.20329a101.776564 101.776564 0 0 1 101.776564 101.776564v305.355691A101.776564 101.776564 0 0 1 966.979854 508.907818H101.776564A101.776564 101.776564 0 0 1 0 407.132255V101.776564A101.776564 101.776564 0 0 1 101.776564 0z m0 50.888782a50.888782 50.888782 0 0 0-50.887782 50.887782v305.355691a50.888782 50.888782 0 0 0 50.887782 50.887781h865.20329a50.888782 50.888782 0 0 0 50.888782-50.887781V101.776564a50.888782 50.888782 0 0 0-50.888782-50.887782H101.776564zM178.109236 330.798582h712.461946a25.443891 25.443891 0 0 1 0 50.887782H178.109236a25.443891 25.443891 0 1 1 0-50.887782z m-64.889721 360.058456a25.443891 25.443891 0 1 1 14.819936-48.636791 120.821482 120.821482 0 0 1 50.453784 194.748165 94.097597 94.097597 0 0 0 2.559989 136.640414 25.443891 25.443891 0 0 1-31.178867 40.213828 144.62738 144.62738 0 0 1-9.751958-210.259099 70.163699 70.163699 0 0 0-26.852885-112.630517z m356.242472 0a25.443891 25.443891 0 1 1 14.821937-48.636791 120.821482 120.821482 0 0 1 50.452784 194.748165 94.097597 94.097597 0 0 0 2.559989 136.640414 25.443891 25.443891 0 0 1-31.177867 40.213828 144.62738 144.62738 0 0 1-9.752958-210.259099 70.163699 70.163699 0 0 0-26.851885-112.630517z m-178.109236 4.836979a25.443891 25.443891 0 1 1 14.821936-48.635791 120.821482 120.821482 0 0 1 50.452784 194.722165 94.071597 94.071597 0 0 0 2.559989 136.640414 25.443891 25.443891 0 1 1-31.177866 40.239828 144.62738 144.62738 0 0 1-9.752958-210.259099 70.189699 70.189699 0 0 0-26.851885-112.630517z" /></svg>