<svg viewBox="0 0 1160 1024" xmlns="http://www.w3.org/2000/svg"><path d="M76.985384 766.27896c57.658003-405.994225 205.79472-556.587378 381.088697-617.042989 219.441585-75.876568 410.975331-21.493812 596.026817-129.645214 111.836056-65.300248 107.196122 51.994555 105.217327 70.827228-28.317244 271.436139-143.974423 529.975991-391.323846 652.729539C498.127629 876.818564 232.013767 629.127969 38.842397 1018.882426 37.545945 1021.748267 34.95304 1023.52236 32.223667 1023.52236H7.79578c-5.799918 0-9.552805-7.642244-6.959901-14.056271C73.30073 830.760396 177.835714 676.891996 311.165582 554.274916c120.228878-110.403136 263.998598-196.17368 428.920958-264.476238 13.373927-5.52698 7.710479-30.364274-6.00462-26.406683-126.438202 36.573597-240.730694 84.405858-346.835067 159.463614-110.880776 78.469472-212.89109 186.962047-310.261469 343.355116z" fill="#ffffff"/></svg>
