<?xml version="1.0" standalone="no"?><!DOCTYPE svg PUBLIC "-//W3C//DTD SVG 1.1//EN" "http://www.w3.org/Graphics/SVG/1.1/DTD/svg11.dtd"><svg class="icon" width="200px" height="200.00px" viewBox="0 0 1024 1024" version="1.1" xmlns="http://www.w3.org/2000/svg"><path d="M229.7856 469.8112c-4.7104-18.6368 0.2048-38.5024 12.9024-53.0432 0.8192-1.024 1.8432-2.048 3.072-2.8672l260.7104-181.4528v-26.0096c0-4.096 1.6384-7.9872 4.5056-10.8544 2.8672-2.8672 6.7584-4.5056 10.8544-4.5056 2.6624 0 5.3248 0.8192 7.5776 2.048 15.1552-3.8912 26.4192-16.1792 29.2864-31.5392 4.7104-17.8176-3.8912-36.4544-20.48-44.4416-14.9504-4.3008-31.1296-1.8432-44.4416 6.5536-8.192 7.5776-13.1072 18.2272-13.312 29.4912-0.8192 7.9872-7.5776 13.9264-15.36 13.9264-7.9872 0-14.5408-5.9392-15.36-13.9264 0.6144-20.2752 9.4208-39.3216 24.576-52.8384 20.8896-14.9504 47.3088-19.6608 72.0896-12.6976 1.2288 0 2.6624 0.4096 3.8912 1.024 30.72 13.5168 47.3088 47.3088 39.1168 80.0768-5.3248 26.4192-25.3952 47.7184-51.6096 54.4768v10.6496l256.4096 180.224c0.4096 0.6144 0.8192 1.024 1.2288 1.4336v-0.6144c12.0832 10.8544 18.2272 26.8288 16.5888 42.8032-3.6864 17.6128-16.1792 32.1536-32.9728 38.5024-1.4336 0.6144-2.8672 0.8192-4.5056 1.024-4.3008 0.4096-9.216 0.8192-14.7456 1.024H262.3488c-14.1312-4.3008-26.0096-14.5408-32.5632-28.4672z m279.1424-202.752L270.336 434.5856c-15.5648 10.8544-7.7824 35.2256 11.0592 35.2256h476.9792c18.8416 0 26.624-24.3712 11.0592-35.2256l-238.3872-167.5264c-6.5536-4.7104-15.5648-4.7104-22.1184 0zM927.5392 461.824l-151.7568-151.7568c-11.264-11.264-26.8288-16.9984-43.008-15.7696-1.4336-0.2048-2.8672-0.2048-4.5056-0.2048h-80.896l-5.7344 3.072c-29.9008 16.5888-68.1984 25.8048-107.52 25.8048-39.5264 0-77.6192-9.216-107.52-25.8048l-5.7344-3.072H339.968c-20.6848 0-39.1168 11.264-48.7424 29.0816L141.5168 473.088c-10.4448 10.4448-15.9744 24.1664-15.9744 38.7072 0 14.5408 5.7344 28.4672 15.9744 38.7072l109.568 109.568c9.216 9.216 21.0944 14.7456 33.792 15.7696v264.8064c0 30.5152 24.7808 55.296 55.296 55.296h388.096c30.5152 0 55.296-24.7808 55.296-55.296V664.7808c12.9024-1.024 24.9856-6.5536 34.2016-15.7696l109.568-109.568c21.504-21.504 21.504-56.32 0.2048-77.6192z m0 0M763.0848 339.1488l138.0352 146.432-123.0848 136.6016-27.648-6.9632-5.5296 315.5968-31.1296 32.3584H408.1664l260.5056-63.2832zM282.8288 392.6016L175.7184 512l86.4256 94.8224z" /></svg>