<svg viewBox="0 0 1024 1024" version="1.1" xmlns="http://www.w3.org/2000/svg" width="200" height="200"><path d="M448 981.333333a64 42.666667 0 1 0 128 0 64 42.666667 0 1 0-128 0Z" fill="#A93529"></path><path d="M554.666667 593.941333V970.666667a10.666667 10.666667 0 0 1-10.666667 10.666666h-64a10.666667 10.666667 0 0 1-10.666667-10.666666V593.941333C324.650667 573.184 213.333333 449.088 213.333333 298.666667 213.333333 133.717333 347.050667 0 512 0s298.666667 133.717333 298.666667 298.666667c0 150.421333-111.317333 274.517333-256 295.274666z" fill="#F0493E"></path><path d="M512 298.666667m-85.333333 0a85.333333 85.333333 0 1 0 170.666666 0 85.333333 85.333333 0 1 0-170.666666 0Z" fill="#FFFFFF"></path></svg>
