<?xml version="1.0" standalone="no"?><!DOCTYPE svg PUBLIC "-//W3C//DTD SVG 1.1//EN" "http://www.w3.org/Graphics/SVG/1.1/DTD/svg11.dtd"><svg t="1658239114484" class="icon" viewBox="0 0 1024 1024" version="1.1" xmlns="http://www.w3.org/2000/svg" p-id="26367" xmlns:xlink="http://www.w3.org/1999/xlink" width="200" height="200" fill="currentColor"><defs><style type="text/css">@font-face { font-family: feedback-iconfont; src: url("//at.alicdn.com/t/font_1031158_u69w8yhxdu.woff2?t=1630033759944") format("woff2"), url("//at.alicdn.com/t/font_1031158_u69w8yhxdu.woff?t=1630033759944") format("woff"), url("//at.alicdn.com/t/font_1031158_u69w8yhxdu.ttf?t=1630033759944") format("truetype"); }
</style></defs><path d="M874.666667 469.333333c17.28 42.666667 42.666667 85.333333 42.666666 128v213.333334c0 27.946667-23.893333 42.666667-64 42.666666s-64-17.28-64-42.666666v-42.666667H234.666667v42.666667c0 25.386667-23.893333 42.666667-64 42.666666s-64-14.72-64-42.666666V597.333333c0-42.666667 25.386667-85.333333 42.666666-128s-64-37.333333-64-64 5.333333-42.666667 42.666667-42.666666h64s30.293333-87.04 42.666667-128 64-64 106.666666-64h341.333334c42.666667 0 94.293333 23.04 106.666666 64s42.666667 128 42.666667 128h64c37.333333 0 42.666667 16 42.666667 42.666666s-81.28 21.333333-64 64z m-469.333334 149.333334a21.333333 21.333333 0 0 0 21.333334 21.333333h170.666666a21.333333 21.333333 0 0 0 21.333334-21.333333v-21.333334a21.333333 21.333333 0 0 0-21.333334-21.333333h-170.666666a21.333333 21.333333 0 0 0-21.333334 21.333333v21.333334zM192 618.666667a64 64 0 1 0 64-64 64 64 0 0 0-64 64z m597.333333-256c0-21.333333-42.666667-106.666667-42.666666-106.666667H277.333333s-42.666667 85.333333-42.666666 106.666667v21.333333a42.666667 42.666667 0 0 0 42.666666 42.666667h469.333334a42.666667 42.666667 0 0 0 42.666666-42.666667v-21.333333z m-21.333333 192a64 64 0 1 0 64 64 64 64 0 0 0-64-64z" p-id="26368"></path></svg>