<?xml version="1.0" standalone="no"?><!DOCTYPE svg PUBLIC "-//W3C//DTD SVG 1.1//EN" "http://www.w3.org/Graphics/SVG/1.1/DTD/svg11.dtd"><svg t="1783997661268" class="icon" viewBox="0 0 1024 1024" version="1.1" xmlns="http://www.w3.org/2000/svg" p-id="2840" xmlns:xlink="http://www.w3.org/1999/xlink" width="200" height="200"><path d="M1008.83968 506.74688l-47.32032-212.88832-125.46944-14.336-31.92704-41.11616 14.40384-128.512L626.688 15.14752l-89.07648 91.6544h-51.22304L397.312 15.14752 205.47712 109.89184l14.40384 128.59264-31.89376 41.0432-125.47072 14.336-47.35232 212.8832 106.91584 68.65792 11.42272 51.2L66.176 736.04608l132.81536 170.752 119.008-42.93376 46.15168 22.7776 41.43488 122.21696H618.496l41.472-122.21696 46.11584-22.7776 119.00416 42.93376 132.8128-170.752-67.328-109.44 11.3856-51.2 106.88-68.65792z m-144.41216 224.0256l-65.19552 83.8656-97.7664-35.29472-103.1936 51.01312-34.048 100.31232h-104.4736l-34.05696-100.31232-103.1872-51.01184-97.77024 35.29344-65.20064-83.8656 55.30368-89.87136-25.50144-114.5088-87.7952-56.39424 23.23456-104.5376 103.04-11.75296 71.38176-91.79904-11.81312-105.55264 94.1824-46.53696 73.18016 75.24736h114.54592l73.17632-75.24736 94.17984 46.53824-11.81184 105.55136 71.4112 91.80032 103.0464 11.75296 23.23328 104.49792-87.82592 56.43136-25.472 114.50752 55.19616 89.87392z m-352.49664-414.2464c-105.28512 0-190.63424 87.5392-190.63424 195.49568 0 108.064 85.312 195.5712 190.63424 195.5712s190.63424-87.5072 190.63424-195.57248c0-107.95648-85.312-195.49568-190.63424-195.49568z m0 318.25792c-65.84192 0-119.4048-54.976-119.4048-122.5472 0-67.49056 53.56288-122.46656 119.4048-122.46656 65.87392 0 119.44192 54.976 119.44192 122.46656 0 67.5712-53.568 122.5472-119.44192 122.5472z" p-id="2841"></path></svg>