<?xml version="1.0" standalone="no"?><!DOCTYPE svg PUBLIC "-//W3C//DTD SVG 1.1//EN" "http://www.w3.org/Graphics/SVG/1.1/DTD/svg11.dtd"><svg class="icon" width="200px" height="188.24px" viewBox="0 0 1088 1024" version="1.1" xmlns="http://www.w3.org/2000/svg"><path d="M218.24 238.848a93.12 93.12 0 1 0 106.752-152.64 93.12 93.12 0 1 0-106.688 152.64z m28.48 504.32l-91.584-440.96H61.888l92.992 454.656a232.896 232.896 0 0 0 230.272 197.888h329.28V861.44H384.896a139.84 139.84 0 0 1-138.176-118.4z m478.4-68.096H497.728L449.92 483.968c73.408 41.472 152.896 72 240 56.896V441.792c-75.904 14.208-160.32-12.8-218.56-58.048l-76.672-59.648a106.56 106.56 0 0 0-35.648-17.728 106.112 106.112 0 0 0-46.08-2.752l-1.28 0.192a104.896 104.896 0 0 0-85.248 121.408l63.168 275.968a139.776 139.776 0 0 0 137.28 113.728h319.232l178.048 139.776 69.952-69.888-268.992-209.728z" /></svg>