<?xml version="1.0" standalone="no"?><!DOCTYPE svg PUBLIC "-//W3C//DTD SVG 1.1//EN" "http://www.w3.org/Graphics/SVG/1.1/DTD/svg11.dtd"><svg t="1784709079927" class="icon" viewBox="0 0 1024 1024" version="1.1" xmlns="http://www.w3.org/2000/svg" p-id="1965" xmlns:xlink="http://www.w3.org/1999/xlink" width="200" height="200"><path d="M910.1 431.8C865.2 336.6 814 260.4 758 205.3 686.6 135.2 607.5 99.6 523 99.6c-84 0-164.2 36.6-238.4 108.8-56.9 55.4-110.6 132-159.6 227.8C43.1 597.1 2.7 755.3 1 762c-4.3 17.2 6.1 34.7 23.3 39s34.7-6.1 39.1-23.3c0.1-0.6 5.2-20.3 15.1-52.5l216.7 79.7c-0.2 55.9 4.1 90.1 4.4 92.6 2 15.6 15.3 26.9 30.6 26.9 1.3 0 2.7-0.1 4-0.3 16.9-2.2 28.9-17.7 26.7-34.6-0.1-0.5-3.6-28.7-3.9-75.9L952 759h0.1c5.1 25.2 7.6 43 7.6 49.9 0 17.8 14.4 32.1 32.2 32.1s32.2-14.4 32.2-32.1c-0.4-37.5-35.3-210.2-114-377.1zM712.9 251.1c50.6 49.7 97.4 119.7 139 208 15.4 32.6 28.7 64.8 40.1 95.4l-75.6 7.2c-8.1-23.8-23.1-59.6-43.2-92.9-55.5-92.5-113.4-106.9-152.2-102.7-32 3.5-60.7 19.9-85.5 48.9-17.7 20.7-33.4 48.1-46.7 81.3-16.5 41.3-25.3 81.3-28.7 99.2l-84.1 8c12-63.7 29.3-125.4 51.8-184 35.1-91.6 82.9-176 142-250.9 18.4 3.9 36.6 10 54.2 18.4 30.5 14.6 60.4 36.1 88.9 64.1zM750.3 568l-223 21.2c4.2-18 11.1-43.3 21.3-69 10.7-26.7 22.8-48.1 35.9-63.5 14-16.3 28.2-25.1 43.5-26.7 35.5-3.8 67.4 34.9 87.9 68.1 15.6 25.2 27.1 51.1 34.4 69.9zM329.8 254.1c53-51.4 108.3-81 165-88.4-50.9 70.7-92.7 148.4-124.7 231.8-24.6 64.3-43.4 132-56.1 201.7L149.5 535c10.3-23.2 21.5-46.9 33.6-70.6 45.7-89.2 95.2-160 146.7-210.3z m-231.2 410c7.5-21.4 16.1-44.9 26-69.7l179.7 70c-3.2 25.9-5.4 50.3-6.9 72.9L98.6 664.1zM358.4 749c1.3-24.3 3.6-51.1 7.3-79.8L913.9 617c8.1 24.9 14.6 47.5 19.8 66.6 1.1 4.1 2.2 8.2 3.3 12.2L358.4 749z" p-id="1966"></path></svg>