<?xml version="1.0" standalone="no"?><!DOCTYPE svg PUBLIC "-//W3C//DTD SVG 1.1//EN" "http://www.w3.org/Graphics/SVG/1.1/DTD/svg11.dtd"><svg t="1781498840420" class="icon" viewBox="0 0 1025 1024" version="1.1" xmlns="http://www.w3.org/2000/svg" p-id="2196" xmlns:xlink="http://www.w3.org/1999/xlink" width="200.1953125" height="200"><path d="M1000.521813 595.989333c2.005333 6.016 10.005333 8 16 6.016 5.994667-2.005333 10.005333-8 8-14.016l-138.005333-400c-2.005333-8-3.989333-13.994667-8-17.984-11.989333-18.005333-29.994667-24-50.005333-26.005333-17.984-2.005333-37.973333 0-56 8a101.546667 101.546667 0 0 0-43.989334 21.994667c-5.994667 4.010667-5.994667 10.005333-2.005333 16 4.010667 5.994667 10.005333 5.994667 16 2.005333 10.005333-5.994667 21.994667-13.994667 36.010667-18.005333 16-5.994667 33.984-8 48-8 11.989333 2.005333 24 8 32 18.005333 1.984 2.005333 3.989333 5.994667 5.994666 11.989333l136 400zM0.521813 587.989333c-2.005333 6.016 2.005333 12.010667 8 14.016 5.994667 1.984 13.994667 0 16-6.016L160.521813 195.989333c2.005333-5.973333 3.989333-9.984 5.994667-11.989333 8-10.005333 20.010667-16 32-18.005333 13.994667 0 32 2.005333 48 8 13.994667 4.010667 26.005333 12.010667 36.010667 18.005333 5.994667 3.989333 11.989333 3.989333 16-2.005333 3.989333-5.994667 3.989333-11.989333-2.005334-16a101.546667 101.546667 0 0 0-44.010666-21.994667c-17.984-8-37.973333-10.005333-56-8-19.989333 2.005333-37.973333 8-49.984 26.005333-4.010667 3.989333-6.016 9.984-8 17.984L0.521813 587.989333z" p-id="2197"></path><path d="M12.53248 579.989333h65.984c5.994667 0 12.010667 4.010667 12.010667 12.010667 0 2.005333-2.005333 5.994667-2.005334 8-8 11.989333-13.994667 27.989333-18.005333 43.989333-2.005333 16-2.005333 34.005333 0 52.010667 0 5.994667-3.989333 11.989333-11.989333 13.994667H12.53248C6.495147 709.994667 0.521813 704 0.521813 698.026667V592c0-8 5.994667-12.010667 12.010667-12.010667z m933.973333 0h66.005334c6.016 0 12.010667 4.010667 12.010666 12.010667v106.005333c0 5.994667-5.994667 11.989333-12.010666 11.989334h-45.994667c-8-2.005333-11.989333-8-11.989333-13.994667 1.984-18.005333 1.984-36.010667 0-52.010667-4.010667-16-10.005333-32-18.005334-43.989333 0-2.005333-2.005333-5.994667-2.005333-8 0-8 6.016-12.010667 12.010667-12.010667z m-368 90.026667c8.021333-2.026667 12.010667-10.026667 10.026667-16-2.005333-6.016-8-10.026667-16-8.021333-18.005333 5.994667-40 8-60.010667 8a188.544 188.544 0 0 1-60.010666-10.005334c-5.973333-1.984-13.994667 2.005333-16 8-1.984 8 2.005333 14.016 8 16 22.016 6.016 44.010667 8 68.010666 10.026667 24 0 45.994667-4.010667 66.005334-8.021333z" p-id="2198"></path><path d="M262.51648 517.994667c98.005333 13.994667 152 44.010667 180.010667 84.010666 16 24 19.989333 51.989333 18.005333 80-4.010667 25.984-16 53.994667-32 80-40 59.989333-110.016 112-166.016 117.994667l-1.984-12.010667 1.984 12.010667h-1.984c-88 10.005333-156.010667-40-190.016-104-16-29.994667-25.984-66.005333-25.984-98.005333 0-34.005333 8-67.989333 25.984-93.994667 30.016-50.005333 94.016-80 192-66.005333z m320 84.010666c26.005333-40 82.005333-70.016 180.010667-84.010666 98.005333-13.994667 162.005333 16 192 66.005333 18.005333 26.005333 26.005333 59.989333 26.005333 93.994667 0 32-10.026667 68.010667-26.026667 98.005333-33.984 64-101.973333 114.005333-189.973333 104h-2.005333l2.005333-12.010667-2.005333 12.010667c-56-5.994667-125.994667-58.005333-165.994667-117.994667-16-26.005333-28.010667-54.016-32-80-2.005333-28.010667 1.984-56 17.984-80z" p-id="2199"></path><path d="M766.51648 539.989333c-89.984 14.016-139.989333 42.026667-163.989333 76.010667-12.010667 18.005333-16 40-13.994667 64 3.989333 21.994667 13.994667 45.994667 27.989333 67.989333 36.010667 56.021333 100.010667 102.016 149.994667 108.010667 77.994667 8 136-34.005333 165.994667-91.989333 16-26.026667 24-58.026667 24-88.021334 0-27.989333-5.973333-56-21.973334-80-26.026667-41.984-80-67.989333-168.021333-56z" p-id="2200"></path><path d="M794.527147 643.989333c-2.005333-3.989333-10.005333-5.973333-16-3.989333-5.994667 3.989333-8 11.989333-4.010667 16l26.005333 45.994667c4.010667 5.994667 10.005333 8 16 4.010666 5.994667-4.010667 8-10.005333 4.010667-16l-26.026667-46.016z m-50.005334 4.010667c-3.989333-5.994667-10.005333-8-16-4.010667-5.994667 4.010667-8 10.026667-5.994666 16l51.989333 90.026667c4.010667 5.973333 12.010667 7.978667 18.005333 3.989333 5.994667-2.005333 5.994667-10.005333 4.010667-16l-52.010667-90.005333z" p-id="2201"></path><path d="M422.51648 616c-24-34.005333-73.984-61.994667-163.989333-76.010667-88-11.989333-141.994667 14.016-168 56-16 24-21.994667 52.010667-21.994667 80 0 30.016 8 62.016 24 88.021334 29.994667 57.984 88 99.989333 165.973333 91.989333 50.026667-5.994667 114.026667-51.989333 150.016-108.010667 13.994667-21.973333 24-45.994667 28.010667-67.989333 1.984-24-2.005333-45.994667-14.016-64z" p-id="2202"></path><path d="M250.527147 656c3.989333-4.010667 2.005333-12.010667-4.010667-16-5.994667-2.005333-13.994667 0-16 3.989333l-25.984 46.016c-4.010667 5.994667-2.005333 11.989333 3.989333 16 5.994667 3.989333 12.010667 1.984 16-4.010666l26.005334-45.994667z m50.005333 3.989333c3.989333-5.973333 1.984-11.989333-4.010667-16-5.994667-3.989333-11.989333-1.984-16 4.010667l-51.989333 90.005333c-4.010667 5.994667-2.005333 13.994667 3.989333 16 5.994667 3.989333 13.994667 1.984 18.005334-4.010666l50.005333-90.005334z" p-id="2203"></path></svg>