<?xml version="1.0" standalone="no"?><!DOCTYPE svg PUBLIC "-//W3C//DTD SVG 1.1//EN" "http://www.w3.org/Graphics/SVG/1.1/DTD/svg11.dtd"><svg t="1658239104730" class="icon" viewBox="0 0 1024 1024" version="1.1" xmlns="http://www.w3.org/2000/svg" p-id="26225" xmlns:xlink="http://www.w3.org/1999/xlink" width="200" height="200" fill="currentColor"><defs><style type="text/css">@font-face { font-family: feedback-iconfont; src: url("//at.alicdn.com/t/font_1031158_u69w8yhxdu.woff2?t=1630033759944") format("woff2"), url("//at.alicdn.com/t/font_1031158_u69w8yhxdu.woff?t=1630033759944") format("woff"), url("//at.alicdn.com/t/font_1031158_u69w8yhxdu.ttf?t=1630033759944") format("truetype"); }
</style></defs><path d="M965.911 310.531l-174.4-174.398c-13.022-13.021-30.933-19.649-49.381-18.228-1.74-0.15-3.422-0.224-5.07-0.224l-92.914 0-6.517 3.625c-34.421 19.146-78.341 29.689-123.668 29.689-45.328 0-89.246-10.543-123.667-29.689l-6.518-3.625L290.86 117.681c-23.691 0-44.986 12.924-55.995 33.451L62.477 323.521c-11.9 11.899-18.454 27.72-18.454 44.548 0 16.829 6.554 32.649 18.453 44.549l125.953 125.955c10.54 10.538 24.157 16.878 38.826 18.181l0 304.399c0 35.073 28.533 63.606 63.604 63.606l446.199 0c35.074 0 63.607-28.533 63.607-63.606l-0.001-317.345c14.844-1.211 28.639-7.577 39.288-18.224L965.91 399.628C990.475 375.064 990.475 335.095 965.911 310.531z" p-id="26226"></path></svg>