<?xml version="1.0" standalone="no"?><!DOCTYPE svg PUBLIC "-//W3C//DTD SVG 1.1//EN" "http://www.w3.org/Graphics/SVG/1.1/DTD/svg11.dtd"><svg t="1658239124928" class="icon" viewBox="0 0 1024 1024" version="1.1" xmlns="http://www.w3.org/2000/svg" p-id="26652" xmlns:xlink="http://www.w3.org/1999/xlink" width="200" height="200" fill="currentColor"><defs><style type="text/css">@font-face { font-family: feedback-iconfont; src: url("//at.alicdn.com/t/font_1031158_u69w8yhxdu.woff2?t=1630033759944") format("woff2"), url("//at.alicdn.com/t/font_1031158_u69w8yhxdu.woff?t=1630033759944") format("woff"), url("//at.alicdn.com/t/font_1031158_u69w8yhxdu.ttf?t=1630033759944") format("truetype"); }
</style></defs><path d="M546.4 134.6V98.4c0-19-15.5-34.4-34.4-34.4-19 0-34.4 15.5-34.4 34.4v36.2c-212.2 17.5-379.2 195-379.2 411.7h4.9C118.6 487 172 443 236.2 443s117.6 44 132.9 103.4h9.8c12.5-48.3 50.5-86 98.5-98.5v374.2c0 11.5-3.3 68.9-68.9 68.9-62.8 0-68.7-52.9-68.9-69.1-0.1-19-15.5-34.2-34.4-34.2-19 0-34.4 15.5-34.4 34.4 0 55.4 36.6 137.9 137.9 137.9 101.1 0 137.9-82.5 137.9-137.9V448c48.2 12.5 86 50.2 98.5 98.5h9.9c15.4-59.3 68.8-103.4 132.9-103.4 64.1 0 117.5 44 132.9 103.4h4.9c-0.3-216.8-167.2-394.3-379.3-411.9z" p-id="26653"></path></svg>